<?xml version="1.0" standalone="no"?>
<!DOCTYPE svg PUBLIC "-//W3C//DTD SVG 20010904//EN"
 "http://www.w3.org/TR/2001/REC-SVG-20010904/DTD/svg10.dtd">
<svg version="1.0" xmlns="http://www.w3.org/2000/svg"
 width="500.000000pt" height="500.000000pt" viewBox="0 0 500.000000 500.000000"
 preserveAspectRatio="xMidYMid meet">

<g transform="translate(0.000000,500.000000) scale(0.100000,-0.100000)"
fill="#000000" stroke="none">
<path d="M0 2500 l0 -2500 2500 0 2500 0 0 2500 0 2500 -2500 0 -2500 0 0
-2500z m1830 1501 c0 -11 7 -27 16 -35 14 -14 87 -16 660 -16 l644 0 14 35 15
35 119 0 120 0 -44 -107 c-24 -60 -47 -123 -50 -140 l-6 -33 -700 0 -700 0 7
-37 c4 -21 9 -41 11 -45 3 -5 309 -8 681 -8 l676 0 -7 -32 c-20 -95 -27 -200
-24 -331 l3 -147 -652 0 c-381 0 -653 -4 -653 -9 0 -41 -45 -257 -70 -336 -17
-53 -29 -99 -27 -101 3 -3 58 4 123 15 178 30 308 41 488 41 201 0 350 -14
534 -49 123 -24 142 -26 137 -12 -4 9 -16 46 -28 84 l-21 67 -538 0 c-424 0
-538 3 -538 13 1 6 7 39 15 72 8 33 15 75 15 93 l0 32 613 0 613 0 22 -97 c35
-154 124 -372 211 -513 11 -19 21 -37 21 -40 0 -3 -55 -4 -122 -2 -110 2 -125
5 -140 23 -32 38 -272 96 -518 125 -110 12 -192 15 -340 11 -207 -6 -321 -20
-515 -64 -107 -24 -124 -31 -153 -61 l-33 -34 -115 -2 c-64 0 -118 2 -121 7
-2 4 5 20 15 35 33 46 119 222 151 309 67 183 101 357 101 520 l0 83 648 0
647 0 2 45 2 45 -649 0 c-358 0 -650 3 -650 8 0 4 -7 50 -15 102 -19 124 -56
260 -100 365 -19 47 -35 90 -35 95 0 6 48 10 120 10 112 0 120 -1 120 -19z
m-880 -2077 c0 -11 20 -14 95 -14 l95 0 0 -49 c0 -46 -1 -48 -25 -43 -15 2
-25 0 -25 -7 0 -6 -16 -11 -35 -11 -19 0 -35 -4 -35 -10 0 -5 13 -10 28 -10
34 0 43 -7 35 -26 -3 -8 -19 -15 -37 -16 -17 -1 -2 -4 34 -7 56 -5 65 -9 65
-26 0 -16 -8 -21 -40 -25 l-40 -5 43 -14 c23 -8 42 -20 42 -26 0 -20 -27 -37
-52 -33 -21 3 -23 -1 -24 -38 -1 -40 1 -42 38 -55 42 -14 44 -17 25 -43 -13
-18 -18 -17 -114 17 l-101 35 -49 -24 c-27 -14 -77 -30 -112 -36 -52 -10 -64
-10 -72 3 -18 28 -8 36 50 43 65 7 120 37 136 74 8 18 17 22 40 20 30 -3 32
-7 19 -43 -6 -16 -5 -18 7 -9 8 7 22 8 34 3 32 -13 35 -11 35 26 l0 35 -95 0
-95 0 0 -40 c0 -38 -2 -40 -30 -40 -28 0 -30 2 -30 39 l0 40 -32 -11 c-28 -10
-33 -9 -50 12 l-19 24 53 20 53 21 -42 3 c-38 3 -43 6 -43 28 0 23 3 24 62 24
57 0 76 11 25 15 -12 1 -23 9 -25 18 -3 13 4 17 27 17 17 0 31 5 31 10 0 6
-16 10 -35 10 -19 0 -35 5 -35 10 0 6 -11 10 -25 10 -23 0 -25 4 -25 45 l0 45
100 0 c62 0 100 4 100 10 0 13 41 29 58 23 6 -3 12 -11 12 -19z m370 -34 c0
-43 3 -50 19 -50 11 0 25 -2 33 -5 11 -4 41 32 85 104 1 2 13 1 27 -3 18 -4
23 -11 19 -26 -5 -19 0 -20 68 -20 41 0 79 -4 86 -8 15 -9 -3 -48 -47 -103
l-29 -37 42 -16 c24 -9 48 -16 54 -16 9 0 9 -8 2 -30 -6 -16 -15 -30 -20 -30
-5 0 -9 -45 -9 -100 l0 -100 -35 0 c-24 0 -35 5 -35 15 0 12 -14 15 -65 15
-51 0 -65 -3 -65 -15 0 -10 -10 -15 -30 -15 l-30 0 0 90 c0 77 -3 94 -20 112
-11 12 -20 18 -20 12 -1 -5 -7 2 -15 16 -13 23 -14 13 -15 -102 l0 -128 -30 0
-30 0 -1 98 0 97 -17 -45 c-19 -49 -29 -53 -46 -18 -10 19 -8 33 15 83 38 85
40 107 9 115 -18 4 -26 14 -28 33 -3 25 -1 27 32 27 l36 0 0 50 c0 49 1 50 30
50 29 0 30 -1 30 -50z m534 40 c14 -5 26 -14 26 -19 0 -15 -109 -121 -125
-121 -8 0 -19 9 -25 20 -10 18 -4 28 42 75 29 30 54 55 55 55 1 0 13 -4 27
-10z m212 -12 c-1 -21 4 -23 57 -26 l57 -3 0 -39 c0 -29 4 -40 15 -40 9 0 15
-9 15 -25 0 -16 -6 -25 -15 -25 -11 0 -15 -11 -15 -40 l0 -40 -55 0 c-73 0
-71 -18 3 -22 53 -3 57 -5 57 -28 0 -23 -4 -25 -57 -28 -80 -4 -73 -20 10 -24
65 -3 67 -4 70 -30 3 -27 3 -27 -70 -30 l-73 -3 1 -32 c1 -31 -2 -33 -33 -33
-31 0 -33 2 -33 35 l0 35 -65 0 -65 0 0 30 0 30 65 0 c37 0 65 4 65 10 0 6
-25 10 -55 10 -54 0 -55 0 -55 30 0 30 1 30 55 30 30 0 55 5 55 10 0 6 -22 10
-50 10 -47 0 -50 2 -50 25 0 23 3 25 50 25 38 0 50 4 50 15 0 12 -13 15 -60
15 -41 0 -60 4 -60 12 0 7 -7 3 -15 -9 -11 -16 -16 -56 -18 -165 l-2 -143 -33
-3 -33 -3 3 100 c3 94 -1 116 -17 91 -11 -17 -24 -11 -39 18 -14 27 -13 29 40
82 30 30 54 59 54 66 0 8 25 10 90 6 79 -4 90 -3 90 12 0 13 -10 16 -50 16
-47 0 -50 2 -50 25 0 23 3 25 50 25 47 0 50 2 50 25 0 22 4 25 34 25 28 0 33
-3 32 -22z m342 -155 c-3 -161 -6 -183 -27 -230 -12 -28 -31 -59 -42 -69 -18
-16 -20 -16 -39 1 -25 23 -25 37 0 60 36 33 50 107 50 267 l0 148 31 0 31 0
-4 -177z m642 162 c0 -12 18 -15 100 -15 l100 0 0 -31 0 -30 -92 1 c-118 2
-135 -2 -38 -9 l75 -6 3 -52 3 -53 -75 0 c-44 0 -76 -4 -76 -10 0 -6 33 -10
80 -10 l80 0 0 -35 c0 -31 3 -35 25 -35 20 0 25 -5 25 -25 0 -20 -5 -25 -24
-25 -22 0 -25 -5 -28 -42 -3 -40 -5 -43 -35 -46 -19 -2 -33 1 -33 7 0 6 -20
11 -45 11 -36 0 -45 -3 -45 -17 0 -32 -17 -45 -66 -54 -51 -10 -58 -7 -69 29
-6 20 -3 22 29 22 20 0 36 4 36 10 0 5 -35 10 -77 12 -72 3 -78 5 -81 26 -3
21 -1 22 77 22 118 0 100 19 -21 22 -98 3 -103 4 -106 26 -3 22 -2 22 102 22
64 0 106 4 106 10 0 6 -32 10 -75 10 -73 0 -75 1 -75 25 0 24 2 25 75 25 43 0
75 4 75 10 0 6 -30 10 -70 10 l-70 0 0 56 0 55 65 -2 c36 -1 68 1 72 4 3 4
-37 7 -90 7 l-97 0 0 30 0 30 95 0 c78 0 95 3 95 15 0 10 11 15 35 15 24 0 35
-5 35 -15z m458 9 c17 -5 21 -11 17 -25 -6 -18 0 -19 94 -19 106 0 131 -5 131
-25 0 -14 -86 -95 -101 -95 -5 0 -9 -4 -9 -9 0 -5 34 -12 75 -16 41 -4 75 -10
75 -14 -1 -3 -9 -16 -20 -29 -18 -22 -22 -22 -87 -12 -37 6 -84 16 -104 22
-29 8 -47 7 -84 -6 -26 -8 -76 -19 -110 -22 -58 -6 -63 -5 -70 15 -10 32 -1
38 66 44 76 8 85 14 57 36 -20 17 -24 17 -50 2 -28 -15 -29 -15 -47 8 l-19 25
42 26 c22 15 55 43 71 62 32 39 37 41 73 32z m546 -26 c9 -12 16 -25 16 -29 0
-9 -82 -29 -119 -29 -24 0 -31 -4 -31 -20 0 -18 7 -20 65 -20 l65 0 0 -90 0
-89 -67 -3 -68 -3 -6 -51 c-8 -64 -27 -124 -40 -124 -5 0 -19 8 -30 19 -17 16
-18 22 -8 47 7 17 15 104 18 204 l6 175 55 7 c30 4 66 11 80 17 38 15 47 13
64 -11z m240 -3 c16 -25 16 -26 -10 -36 -15 -5 -47 -13 -71 -16 -51 -7 -66
-22 -57 -57 6 -25 8 -26 85 -26 l79 0 0 -35 c0 -31 -3 -35 -25 -35 l-25 0 0
-126 0 -125 -31 3 -31 3 -2 120 -1 120 -24 0 c-23 0 -26 -6 -37 -70 -12 -72
-40 -141 -68 -164 -12 -10 -19 -9 -39 5 l-23 18 35 68 c34 66 35 72 39 208 l5
140 26 0 c14 0 49 7 76 14 71 20 81 19 99 -9z m-1564 -15 l0 -30 -60 0 c-57 0
-60 -1 -60 -25 0 -24 3 -25 55 -25 l55 0 0 -129 c0 -137 -2 -143 -53 -155 -23
-5 -29 -3 -37 19 -13 34 -13 32 10 38 18 5 20 14 20 86 0 80 0 81 -25 81 l-25
0 0 -150 0 -150 -30 0 -30 0 0 150 0 150 -25 0 -25 0 0 -115 0 -115 -30 0 -30
0 0 144 0 145 53 3 c45 3 52 6 55 26 3 21 0 22 -57 22 l-61 0 0 30 0 30 150 0
150 0 0 -30z m-410 -140 l0 -130 -25 0 -25 0 0 130 0 130 25 0 25 0 0 -130z
m1245 -80 c-6 -19 -2 -20 90 -20 l96 0 -7 -52 c-14 -109 -49 -148 -137 -148
-42 0 -49 3 -57 26 -6 14 -10 27 -10 29 0 2 26 5 58 7 55 3 57 4 68 38 l12 35
-64 3 -64 3 -52 -54 c-33 -34 -71 -60 -102 -72 l-48 -19 -18 24 c-20 26 -18
40 6 40 21 0 74 28 102 54 l24 21 -59 5 c-54 5 -58 7 -61 33 l-3 27 76 0 c68
0 77 2 82 20 4 15 14 20 40 20 30 0 34 -3 28 -20z m-2714 -439 c16 -16 29 -34
29 -40 0 -16 -49 -13 -66 4 -21 20 -73 19 -81 -1 -8 -22 17 -40 67 -48 22 -3
49 -15 60 -26 20 -20 27 -75 12 -96 -18 -27 -60 -44 -105 -44 -41 0 -53 5 -79
30 -16 17 -28 36 -25 43 6 18 50 15 65 -5 23 -32 92 -18 92 19 0 7 -26 20 -57
29 -66 18 -93 43 -93 86 0 76 121 109 181 49z m263 7 c13 -13 27 -33 31 -45 5
-20 3 -23 -22 -23 -17 0 -33 8 -41 20 -31 49 -102 8 -102 -60 0 -76 40 -117
89 -90 30 16 28 50 -4 50 -18 0 -25 5 -25 20 0 16 7 20 38 21 20 0 45 2 55 4
14 3 17 -4 17 -35 0 -55 -15 -87 -49 -105 -39 -19 -100 -19 -129 1 -74 52 -67
222 11 254 43 17 104 12 131 -12z m146 -88 l0 -109 58 -3 c53 -3 57 -5 57 -28
0 -25 -1 -25 -85 -25 l-85 0 -3 138 -3 137 31 0 30 0 0 -110z m350 80 c28 -29
30 -36 30 -106 0 -41 -5 -84 -10 -95 -23 -41 -98 -61 -155 -39 -46 18 -59 39
-63 106 -5 80 2 107 36 139 22 20 37 25 80 25 46 0 57 -4 82 -30z m244 20 c39
-14 52 -51 33 -90 -15 -29 -15 -32 4 -51 21 -21 25 -59 9 -89 -14 -26 -63 -40
-136 -40 l-64 0 0 140 0 140 64 0 c36 0 76 -4 90 -10z m283 -115 c51 -148 52
-155 14 -155 -25 0 -31 6 -41 35 -11 33 -14 35 -54 35 -40 0 -44 -2 -52 -32
-8 -26 -16 -34 -37 -36 -17 -2 -27 1 -27 9 0 7 19 71 43 141 l42 129 35 -3 35
-3 42 -120z m143 15 l0 -109 58 -3 c53 -3 57 -5 57 -28 0 -25 -1 -25 -85 -25
l-85 0 -3 124 c-1 69 0 131 2 138 3 7 17 13 31 13 l25 0 0 -110z m308 -2 l3
-108 54 0 c54 0 55 0 55 -30 l0 -30 -85 0 -85 0 0 141 0 140 28 -3 27 -3 3
-107z m330 -16 c23 -70 42 -133 42 -140 0 -7 -11 -12 -26 -12 -19 0 -28 8 -40
35 -13 32 -18 35 -54 35 -36 0 -41 -3 -54 -35 -12 -27 -21 -35 -41 -35 -31 0
-32 -11 20 154 l40 126 35 0 36 0 42 -128z m131 91 c5 -21 13 -56 17 -78 11
-67 20 -70 33 -12 26 117 30 127 56 127 26 0 24 5 58 -130 l14 -55 12 60 c25
122 24 120 59 123 37 4 37 14 1 -123 -10 -38 -23 -89 -29 -112 -9 -36 -15 -43
-35 -43 -30 0 -29 -1 -58 99 l-23 81 -25 -87 c-22 -80 -27 -88 -51 -91 -18 -2
-28 2 -32 15 -11 39 -66 252 -66 257 0 3 13 6 30 6 25 0 30 -5 39 -37z m586 7
c0 -24 -2 -25 -57 -22 l-58 4 0 -36 0 -35 52 -3 c44 -3 52 -6 54 -25 4 -21 0
-23 -51 -23 l-54 0 -3 -52 c-3 -49 -5 -53 -30 -55 l-28 -2 0 140 0 140 88 -3
c85 -3 87 -3 87 -28z m103 -107 l-3 -138 -25 0 -25 0 -3 138 -3 137 31 0 31 0
-3 -137z m251 113 c35 -32 32 -104 -5 -133 -13 -10 -12 -17 11 -62 21 -43 23
-52 11 -57 -30 -12 -52 2 -74 49 -15 32 -29 47 -42 47 -16 0 -19 -8 -22 -47
-3 -44 -5 -48 -30 -51 l-27 -3 -3 136 c-2 75 -1 139 2 142 3 3 40 3 82 1 55
-3 83 -10 97 -22z m176 -53 c17 -40 34 -75 38 -79 3 -3 12 9 20 27 48 114 58
129 88 129 l29 0 0 -140 0 -140 -25 0 c-24 0 -24 2 -27 83 l-3 82 -30 -60
c-41 -81 -56 -81 -97 -3 l-33 63 -3 -82 c-3 -81 -3 -83 -27 -83 l-25 0 0 141
0 140 31 -3 c29 -3 35 -10 64 -75z"/>
<path d="M740 1847 c0 -7 13 -12 30 -12 17 -1 30 3 30 7 0 12 58 10 65 -2 3
-5 24 -10 45 -10 21 0 42 5 45 10 8 12 62 13 69 1 9 -14 56 -10 56 5 0 11 -32
14 -170 14 -129 0 -170 -3 -170 -13z"/>
<path d="M870 1790 c0 -5 20 -10 45 -10 25 0 45 5 45 10 0 6 -20 10 -45 10
-25 0 -45 -4 -45 -10z"/>
<path d="M875 1740 c-4 -6 12 -10 40 -10 28 0 44 4 40 10 -3 6 -21 10 -40 10
-19 0 -37 -4 -40 -10z"/>
<path d="M845 1671 c-5 -9 142 -21 151 -12 2 2 1 8 -2 12 -7 12 -141 11 -149
0z"/>
<path d="M1480 1830 c0 -5 10 -18 22 -30 l22 -20 23 22 c33 31 29 38 -22 38
-25 0 -45 -4 -45 -10z"/>
<path d="M1348 1782 c-14 -6 -12 -11 12 -40 l27 -33 41 16 c40 16 41 17 26 41
-15 22 -17 22 -39 8 -20 -13 -23 -13 -28 1 -7 16 -13 17 -39 7z"/>
<path d="M1465 1674 l-50 -24 115 0 115 0 -60 25 c-33 14 -62 25 -65 24 -3 0
-27 -11 -55 -25z"/>
<path d="M1452 1563 c3 -27 5 -28 63 -27 57 0 60 1 63 27 3 27 3 27 -63 27
l-66 0 3 -27z"/>
<path d="M2070 1825 c0 -9 9 -15 25 -15 16 0 25 6 25 15 0 9 -9 15 -25 15 -16
0 -25 -6 -25 -15z"/>
<path d="M2070 1746 c0 -11 9 -16 26 -16 31 0 28 23 -4 28 -15 2 -22 -2 -22
-12z"/>
<path d="M2905 1780 c3 -5 22 -10 41 -10 19 0 34 5 34 10 0 6 -18 10 -41 10
-24 0 -38 -4 -34 -10z"/>
<path d="M3050 1780 c0 -5 18 -10 40 -10 22 0 40 5 40 10 0 6 -18 10 -40 10
-22 0 -40 -4 -40 -10z"/>
<path d="M3050 1650 c0 -5 20 -10 45 -10 25 0 45 5 45 10 0 6 -20 10 -45 10
-25 0 -45 -4 -45 -10z"/>
<path d="M3050 1580 c0 -5 20 -10 45 -10 25 0 45 5 45 10 0 6 -20 10 -45 10
-25 0 -45 -4 -45 -10z"/>
<path d="M3466 1829 c3 -5 22 -18 43 -28 36 -19 38 -19 78 -1 68 30 61 38 -37
38 -53 0 -88 -4 -84 -9z"/>
<path d="M3920 1720 c0 -28 3 -30 35 -30 32 0 35 2 35 30 0 28 -3 30 -35 30
-32 0 -35 -2 -35 -30z"/>
<path d="M1486 1188 c-9 -13 -16 -43 -16 -70 0 -60 27 -93 68 -83 36 9 35 7
40 70 3 40 0 62 -12 80 -21 32 -59 33 -80 3z"/>
<path d="M1760 1180 c0 -26 3 -30 29 -30 16 0 34 7 41 15 18 21 -4 45 -41 45
-26 0 -29 -4 -29 -30z"/>
<path d="M1760 1065 c0 -33 2 -35 34 -35 39 0 60 20 51 50 -5 16 -15 20 -46
20 -38 0 -39 -1 -39 -35z"/>
<path d="M2046 1163 c-4 -15 -9 -36 -12 -45 -4 -14 1 -18 21 -18 26 0 27 2 20
38 -9 49 -21 60 -29 25z"/>
<path d="M2826 1156 c-3 -13 -9 -31 -12 -40 -5 -13 1 -16 26 -16 25 0 31 3 26
16 -3 9 -9 27 -12 40 -3 13 -10 24 -14 24 -4 0 -11 -11 -14 -24z"/>
<path d="M3870 1170 c0 -36 3 -40 24 -40 39 0 56 11 56 34 0 30 -18 46 -52 46
-26 0 -28 -3 -28 -40z"/>
</g>
</svg>
